# xmcd
#
# Track frame offsets: 
#        150
#        13685
#        33060
#        44918
#        63908
#        84178
#        100308
#        119725
#        139665
#        158915
#        174323
#
# Disc length: 2514 seconds
#
# Revision: 2
# Processed by: cddbd v1.5.2PL0 Copyright (c) Steve Scherf et al.
# Submitted via: ExactAudioCopy v0.99pb3
#
DISCID=8b09d00b
DTITLE=Tom Principato and Powerhouse - In Orbit
DYEAR=1990
DGENRE=
TTITLE0=Nobody
TTITLE1=In Orbit
TTITLE2=Arms Around My Honey
TTITLE3=Deep in the Heart of Texas
TTITLE4=Same Old Blues
TTITLE5=My Baby Don't Love No One But Me
TTITLE6=You Slipped Up
TTITLE7=In A Dream
TTITLE8=You're Not Alone
TTITLE9=All She Wants to Do is Rock
TTITLE10=Mama, Your Daughter Lied
EXTD=
EXTT0=
EXTT1=
EXTT2=
EXTT3=
EXTT4=
EXTT5=
EXTT6=
EXTT7=
EXTT8=
EXTT9=
EXTT10=
PLAYORDER=
